{
  "asset": {
    "version": "2.0",
    "generator": "Converted from GLTF 1.0"
  },
  "scene": 0,
  "scenes": [
    {
      "name": "defaultScene",
      "nodes": [0]
    }
  ],
  "nodes": [
    {
      "name": "SR71_Root",
      "children": [1]
    },
    {
      "name": "MeshBody1",
      "mesh": 0
    }
  ],
  "meshes": [
    {
      "name": "MeshBody1_mesh",
      "primitives": [
        {
          "mode": 4,
          "attributes": {
            "POSITION": 0
          },
          "indices": 1,
          "material": 0
        }
      ]
    }
  ],
  "accessors": [
    {
      "bufferView": 0,
      "byteOffset": 0,
      "componentType": 5126,
      "count": 3251,
      "type": "VEC3",
      "max": [97.9715576171875, 37.17367935180664, 214.91539001464845],
      "min": [0.2845889925956726, 8.66290283203125, 19.333362579345704]
    },
    {
      "bufferView": 1,
      "byteOffset": 0,
      "componentType": 5123,
      "count": 19500,
      "type": "SCALAR",
      "max": [3250],
      "min": [0]
    }
  ],
  "bufferViews": [
    {
      "buffer": 0,
      "byteOffset": 0,
      "byteLength": 39012,
      "target": 34962
    },
    {
      "buffer": 0,
      "byteOffset": 39012,
      "byteLength": 39000,
      "target": 34963
    }
  ],
  "buffers": [
    {
      "uri": "sr71.bin",
      "byteLength": 78012
    }
  ],
  "materials": [
    {
      "name": "Steel_Satin",
      "pbrMetallicRoughness": {
        "baseColorFactor": [0.6, 0.6, 0.6, 1.0],
        "metallicFactor": 0.8,
        "roughnessFactor": 0.4
      }
    }
  ]
}
